<?xml version="1.0" encoding="UTF-8"?>
<svg version="1.1" xmlns="http://www.w3.org/2000/svg" width="128" height="128">
<path d="M0 0 C0.928125 0.14888672 1.85625 0.29777344 2.8125 0.45117188 C8.40531379 1.47278184 11.86152253 2.50072292 15.375 7.3125 C15.6875 10.625 15.6875 10.625 15.375 13.3125 C16.15875 13.56 16.9425 13.8075 17.75 14.0625 C20.375 15.3125 20.375 15.3125 21.6875 17.125 C22.47302451 19.62439617 22.51972595 21.70743282 22.375 24.3125 C22.99375 24.580625 23.6125 24.84875 24.25 25.125 C26.375 26.3125 26.375 26.3125 28.375 29.3125 C28.5 32.5 28.5 32.5 28.375 35.3125 C29.15875 35.56 29.9425 35.8075 30.75 36.0625 C33.375 37.3125 33.375 37.3125 34.6875 39.0625 C35.98578455 43.31143124 35.50999467 47.09939978 34.375 51.3125 C36.58325994 53.50769331 38.79574456 55.55986192 41.375 57.3125 C42.344375 57.291875 43.31375 57.27125 44.3125 57.25 C48.70413646 57.33962523 50.5083948 59.59278938 53.640625 62.48828125 C56.13062797 65.10727087 57.30459026 66.91351149 57.9375 70.5 C56.62550967 79.39237891 46.35546121 86.48787939 40.13012695 92.68774414 C38.54454204 94.26789644 36.96446558 95.85341976 35.38476562 97.43945312 C34.37532108 98.44823806 33.36556701 99.45671338 32.35546875 100.46484375 C31.44692139 101.37226318 30.53837402 102.27968262 29.60229492 103.21459961 C26.91927345 105.74175115 25.90092671 106.22835173 22.25 106.8125 C16.79825462 106.10904898 14.04137137 103.24858145 10.375 99.3125 C8.375 96.3125 8.375 96.3125 8.8125 93.1875 C8.21530131 87.89802589 6.06893946 85.64313528 2.2109375 82.1015625 C-2.05999551 79.40722735 -5.5411055 79.12825956 -10.515625 79.49609375 C-14.9391596 80.65754944 -17.38088936 82.56917022 -20.31640625 86.0234375 C-22.38067918 89.63437462 -21.89034336 92.19967794 -21.625 96.3125 C-23.86052308 100.61795186 -26.40613499 103.87493355 -30.625 106.3125 C-33.84901871 107.14012166 -36.40840215 107.20038734 -39.625 106.3125 C-42.89094481 104.10146069 -45.59529591 101.71314458 -47.625 98.3125 C-47.3359375 95.54296875 -47.3359375 95.54296875 -46.625 93.3125 C-42.89620778 93.63211076 -41.77392277 94.15613109 -39.125 96.9375 C-36.88227312 99.60023352 -36.88227312 99.60023352 -34 99.375 C-31.23418278 98.13766072 -30.19170813 96.86870801 -28.625 94.3125 C-30.26278045 90.11624091 -33.35823182 87.32573215 -36.5078125 84.234375 C-37.08207977 83.66293762 -37.65634705 83.09150024 -38.24801636 82.50274658 C-40.0773581 80.68457055 -41.91354193 78.87348508 -43.75 77.0625 C-44.99394774 75.82858671 -46.2374427 74.59421678 -47.48046875 73.359375 C-50.52342367 70.33843257 -53.57253254 67.32382908 -56.625 64.3125 C-59.25401288 65.83456009 -61.46865964 67.15615964 -63.625 69.3125 C-63.66789755 71.24359581 -63.66789755 71.24359581 -62.625 73.3125 C-61.75875 74.116875 -60.8925 74.92125 -60 75.75 C-58.824375 77.0184375 -58.824375 77.0184375 -57.625 78.3125 C-57.8125 81.125 -57.8125 81.125 -58.625 83.3125 C-62.50067839 83.1950552 -64.63798798 81.75362864 -67.4375 79.25 C-69.79157057 76.71484708 -71.17639846 74.85888038 -71.5 71.375 C-71.03265116 66.16304446 -67.43250129 62.60923892 -63.625 59.3125 C-60.86811605 57.64054947 -60.02797696 57.26869816 -56.75 57.625 C-53.02156386 57.25215639 -52.59626488 56.57378815 -50.25 53.8125 C-49.35752438 52.6591469 -48.47663365 51.49633117 -47.625 50.3125 C-47.955 49.6525 -48.285 48.9925 -48.625 48.3125 C-49.16822579 43.77968154 -49.45646879 40.40380278 -46.625 36.6875 C-45.965 35.90375 -45.305 35.12 -44.625 34.3125 C-44.625 33.1575 -44.625 32.0025 -44.625 30.8125 C-44.625 27.3125 -44.625 27.3125 -42.8125 24.375 C-40.625 22.3125 -40.625 22.3125 -37.625 22.3125 C-37.7075 21.24 -37.79 20.1675 -37.875 19.0625 C-37.625 15.3125 -37.625 15.3125 -35.75 12.875 C-33.625 11.3125 -33.625 11.3125 -31.625 11.3125 C-31.58375 10.075 -31.5425 8.8375 -31.5 7.5625 C-31.04528769 3.99427146 -30.79656085 3.47180651 -28 0.875 C-19.02118274 -3.28185984 -9.40693605 -1.71933495 0 0 Z M-14.625 4.3125 C-12.06964865 9.02954177 -12.06964865 9.02954177 -9.625 11.3125 C-7.61275876 11.28983657 -7.61275876 11.28983657 -5.625 10.3125 C-4.635 8.9925 -3.645 7.6725 -2.625 6.3125 C-8.565 5.3225 -8.565 5.3225 -14.625 4.3125 Z M-25.625 7.3125 C-24.76451346 11.91024026 -22.03003655 14.42265843 -18.8125 17.625 C-18.27818359 18.18767578 -17.74386719 18.75035156 -17.19335938 19.33007812 C-15.44944301 21.1423578 -15.44944301 21.1423578 -12.625 23.3125 C-10.46916626 23.03516161 -10.46916626 23.03516161 -8.625 22.3125 C-8.625 20.9925 -8.625 19.6725 -8.625 18.3125 C-10.20538583 16.76425256 -10.20538583 16.76425256 -12.3125 15.5 C-16.51345108 12.58763852 -18.82446769 9.55573077 -21.625 5.3125 C-23.08725016 5.22004997 -23.08725016 5.22004997 -25.625 7.3125 Z M0.625 11.3125 C-1.93259317 13.95099166 -1.93259317 13.95099166 -2.8984375 17.3828125 C-2.84945312 18.06085937 -2.80046875 18.73890625 -2.75 19.4375 C-2.625 23.3125 -2.625 23.3125 -4.9375 26.25 C-7.625 28.3125 -7.625 28.3125 -10.625 29.3125 C-11.058125 30.26125 -11.49125 31.21 -11.9375 32.1875 C-13.99629133 36.00007654 -15.8272381 36.45402077 -19.625 38.3125 C-20.32711894 39.96454456 -20.99471413 41.63173769 -21.625 43.3125 C-23.89658744 44.90261121 -26.15370728 46.07685364 -28.625 47.3125 C-29.30632451 48.97322849 -29.97242127 50.640267 -30.625 52.3125 C-33.12030171 54.80780171 -33.94618264 54.50015787 -37.375 54.5625 C-41.40196394 54.86014516 -43.40809892 55.47190967 -46.25 58.375 C-47.425625 59.8290625 -47.425625 59.8290625 -48.625 61.3125 C-47.11123919 64.88014285 -45.01986871 67.14956287 -42.2734375 69.859375 C-41.42265625 70.70371094 -40.571875 71.54804687 -39.6953125 72.41796875 C-38.80585937 73.29066406 -37.91640625 74.16335937 -37 75.0625 C-36.1028125 75.95066406 -35.205625 76.83882813 -34.28125 77.75390625 C-32.06692996 79.94466969 -29.84807565 82.13062763 -27.625 84.3125 C-26.95404297 83.73242188 -26.95404297 83.73242188 -26.26953125 83.140625 C-25.01270421 82.05798508 -23.74999941 80.98214236 -22.48242188 79.91210938 C-21.01552947 78.64882349 -19.60552147 77.31950143 -18.21875 75.96875 C-14.01039263 73.28148566 -9.72999259 73.79900263 -4.86328125 73.82421875 C0.28500859 73.72398656 2.40635056 72.82101617 6.375 69.3125 C7.365 69.6425 8.355 69.9725 9.375 70.3125 C8.74740135 73.24129371 7.78877341 75.67345629 6.375 78.3125 C8.355 80.2925 10.335 82.2725 12.375 84.3125 C15.94264285 82.79873919 18.21206287 80.70736871 20.921875 77.9609375 C21.76621094 77.11015625 22.61054687 76.259375 23.48046875 75.3828125 C24.35316406 74.49335937 25.22585937 73.60390625 26.125 72.6875 C27.01316406 71.7903125 27.90132813 70.893125 28.81640625 69.96875 C31.00716969 67.75442996 33.19312763 65.53557565 35.375 63.3125 C33.77356479 59.97617665 32.38747252 57.57185439 29.375 55.3125 C26.17545046 55.45599347 26.17545046 55.45599347 23.375 56.3125 C23.045 55.3225 22.715 54.3325 22.375 53.3125 C24.05653312 51.13455684 25.95990218 49.29026109 27.90625 47.34765625 C29.64833343 45.42060869 29.64833343 45.42060869 29.09375 43.05859375 C28.8565625 42.48238281 28.619375 41.90617187 28.375 41.3125 C25.08424004 41.69154208 25.08424004 41.69154208 22.375 43.3125 C20.70882885 43.35313832 19.04111905 43.355221 17.375 43.3125 C17.79427628 40.37756604 18.25424008 39.42260463 20.5 37.375 C21.11875 36.694375 21.7375 36.01375 22.375 35.3125 C22.23474801 32.60544488 22.23474801 32.60544488 21.375 30.3125 C17.44424356 30.88702746 17.44424356 30.88702746 14.375 33.3125 C12.25 32.9375 12.25 32.9375 10.375 32.3125 C10.74201012 29.00940896 11.50607802 28.18766379 14 25.8125 C15.175625 24.575 15.175625 24.575 16.375 23.3125 C16.33002158 21.03726911 16.33002158 21.03726911 15.375 19.3125 C13.00070704 19.06180087 13.00070704 19.06180087 10.375 19.3125 C8.74985532 20.77083358 8.74985532 20.77083358 7.375 22.3125 C6.385 22.3125 5.395 22.3125 4.375 22.3125 C4.0625 20.125 4.0625 20.125 4.375 17.3125 C6.04166667 15.64583333 7.70833333 13.97916667 9.375 12.3125 C9.33002158 10.03726911 9.33002158 10.03726911 8.375 8.3125 C4.02190075 8.3125 3.58174729 8.48210943 0.625 11.3125 Z M-29.625 16.3125 C-30.285 16.9725 -30.945 17.6325 -31.625 18.3125 C-31.37679497 22.59580963 -29.8301066 24.62887132 -26.8125 27.5625 C-26.12542969 28.24828125 -25.43835937 28.9340625 -24.73046875 29.640625 C-22.59644863 31.33517159 -21.33438977 32.10801775 -18.625 32.3125 C-17.965 31.6525 -17.305 30.9925 -16.625 30.3125 C-16.84620183 26.32235925 -19.2569325 24.31036544 -22 21.625 C-22.79148437 20.83738281 -23.58296875 20.04976562 -24.3984375 19.23828125 C-26.55816653 17.12287502 -26.55816653 17.12287502 -29.625 16.3125 Z M-36.625 27.3125 C-37.285 27.9725 -37.945 28.6325 -38.625 29.3125 C-38.22668174 33.68494813 -35.49584402 36.03882126 -32.48046875 38.9609375 C-30.61168576 40.60895979 -30.61168576 40.60895979 -27.6875 40.25 C-26.6665625 39.7859375 -26.6665625 39.7859375 -25.625 39.3125 C-26.18459523 35.49003412 -27.83817357 33.72278259 -30.5625 31.0625 C-31.27277344 30.35609375 -31.98304687 29.6496875 -32.71484375 28.921875 C-34.46362366 27.09772388 -34.46362366 27.09772388 -36.625 27.3125 Z M-41.625 41.3125 C-42.39456136 43.65783951 -42.39456136 43.65783951 -42.625 46.3125 C-41.625 48.3125 -41.625 48.3125 -39.625 49.3125 C-36.97033951 49.08206136 -36.97033951 49.08206136 -34.625 48.3125 C-35.19952746 44.38174356 -35.19952746 44.38174356 -37.625 41.3125 C-38.945 41.3125 -40.265 41.3125 -41.625 41.3125 Z M40.48583984 65.97460938 C39.26406356 67.19670363 38.0478082 68.42433237 36.8359375 69.65625 C36.19508209 70.2999353 35.55422668 70.94362061 34.89395142 71.60681152 C32.84124433 73.67074447 30.79558629 75.74151163 28.75 77.8125 C27.36243678 79.2100899 25.97442172 80.60723135 24.5859375 82.00390625 C21.17702016 85.43491587 17.77441052 88.87207191 14.375 92.3125 C15.95496613 95.63322528 17.45389421 97.99279835 20.375 100.3125 C24.99116198 99.75223019 27.56097158 96.5941727 30.70703125 93.44921875 C31.30303635 92.86082718 31.89904144 92.27243561 32.5131073 91.66621399 C33.76837581 90.4217379 35.01970323 89.17327567 36.26733398 87.92114258 C38.18413592 86.00336579 40.12127753 84.10791247 42.06054688 82.21289062 C43.27733998 81.0013025 44.49287921 79.78845352 45.70703125 78.57421875 C46.58183891 77.72400398 46.58183891 77.72400398 47.47431946 76.85661316 C49.27195561 75.08609337 49.27195561 75.08609337 51.375 72.3125 C50.9440522 68.06158083 48.50034015 66.05670111 45.375 63.3125 C42.96536732 63.08662697 42.96536732 63.08662697 40.48583984 65.97460938 Z " fill="#000000" transform="translate(70.625,21.6875)"/>
<path d="M0 0 C4.54359502 0.48508132 6.65945738 2.06608567 9.875 5.25 C10.67679688 6.01828125 11.47859375 6.7865625 12.3046875 7.578125 C14 10 14 10 13.7578125 12.796875 C13.38269531 13.88742187 13.38269531 13.88742187 13 15 C8.45640498 14.51491868 6.34054262 12.93391433 3.125 9.75 C2.32320312 8.98171875 1.52140625 8.2134375 0.6953125 7.421875 C-1 5 -1 5 -0.7578125 2.203125 C-0.50773437 1.47609375 -0.25765625 0.7490625 0 0 Z " fill="#000000" transform="translate(21,0)"/>
<path d="M0 0 C1.8125 0.9375 1.8125 0.9375 2.8125 3.9375 C1.484375 5.875 1.484375 5.875 -0.4375 7.9375 C-1.06140625 8.618125 -1.6853125 9.29875 -2.328125 10 C-3.24851562 10.9590625 -3.24851562 10.9590625 -4.1875 11.9375 C-4.70441406 12.51113281 -5.22132812 13.08476562 -5.75390625 13.67578125 C-7.1875 14.9375 -7.1875 14.9375 -9.875 15.125 C-10.638125 15.063125 -11.40125 15.00125 -12.1875 14.9375 C-12.5175 13.9475 -12.8475 12.9575 -13.1875 11.9375 C-11.89453125 10.03515625 -11.89453125 10.03515625 -10 8 C-9.3503125 7.30132812 -8.700625 6.60265625 -8.03125 5.8828125 C-7.4228125 5.24085938 -6.814375 4.59890625 -6.1875 3.9375 C-5.465625 3.091875 -4.74375 2.24625 -4 1.375 C-2.1875 -0.0625 -2.1875 -0.0625 0 0 Z " fill="#000000" transform="translate(105.1875,0.0625)"/>
<path d="M0 0 C1.65 0 3.3 0 5 0 C6.93341947 1.93341947 6.17449133 5.37479121 6.1875 7.9375 C6.20167969 9.20464844 6.21585937 10.47179688 6.23046875 11.77734375 C6 15 6 15 4 17 C2.68 16.67 1.36 16.34 0 16 C0 10.72 0 5.44 0 0 Z " fill="#000000" transform="translate(61,0)"/>
<path d="M0 0 C1.65 0 3.3 0 5 0 C5.33 1.32 5.66 2.64 6 4 C4.125 5.0625 4.125 5.0625 2 6 C1.34 5.67 0.68 5.34 0 5 C0 3.35 0 1.7 0 0 Z " fill="#000000" transform="translate(83,83)"/>
<path d="M0 0 C1.32 0.33 2.64 0.66 4 1 C3.67 2.65 3.34 4.3 3 6 C1.0625 5.625 1.0625 5.625 -1 5 C-1.33 4.34 -1.66 3.68 -2 3 C-1.34 2.01 -0.68 1.02 0 0 Z " fill="#000000" transform="translate(16,107)"/>
</svg>
