<?xml version="1.0" encoding="UTF-8"?>
<svg version="1.1" xmlns="http://www.w3.org/2000/svg" width="128" height="128">
<path d="M0 0 C0.89589844 -0.01417969 1.79179688 -0.02835937 2.71484375 -0.04296875 C5.0625 0.1875 5.0625 0.1875 7.0625 2.1875 C7.0625 3.1775 7.0625 4.1675 7.0625 5.1875 C7.908125 5.22875 8.75375 5.27 9.625 5.3125 C14.70286103 6.60504644 18.50133549 9.65821075 21.265625 14.13671875 C22.0625 16.1875 22.0625 16.1875 22.0625 20.1875 C22.70832031 20.4040625 23.35414062 20.620625 24.01953125 20.84375 C26.0625 22.1875 26.0625 22.1875 26.63671875 24.71875 C26.69279297 26.18828125 26.69279297 26.18828125 26.75 27.6875 C26.83089782 31.58521356 26.83089782 31.58521356 28.0625 35.1875 C28.44945173 39.28918835 28.47964247 41.50219451 26.3125 45.0625 C24.10089103 47.15124181 23.03499386 47.86901851 20.0625 48.1875 C20.165625 49.05375 20.26875 49.92 20.375 50.8125 C19.95459845 55.35283675 18.31800632 57.07668285 15.0625 60.1875 C12.25 61.0625 12.25 61.0625 10.0625 61.1875 C10.33284634 63.62467258 10.33284634 63.62467258 11.0625 66.1875 C12.5475 67.1775 12.5475 67.1775 14.0625 68.1875 C14.0625 69.5075 14.0625 70.8275 14.0625 72.1875 C13.175625 72.0225 12.28875 71.8575 11.375 71.6875 C8.12490714 71.85024071 8.12490714 71.85024071 6.5859375 73.6171875 C2.90176928 78.9818535 2.33010059 83.76508581 2.0625 90.1875 C7.3425 90.1875 12.6225 90.1875 18.0625 90.1875 C18.2790625 87.83625 18.2790625 87.83625 18.5 85.4375 C18.79308631 82.25542001 19.20590865 79.26834955 20.0625 76.1875 C18.5775 75.1975 18.5775 75.1975 17.0625 74.1875 C17.0625 73.1975 17.0625 72.2075 17.0625 71.1875 C18.6875 70.4375 18.6875 70.4375 21.0625 70.1875 C25.90499223 72.6581593 28.12389495 75.1255868 30.0625 80.1875 C30.0625 81.1775 30.0625 82.1675 30.0625 83.1875 C32.0425 82.5275 34.0225 81.8675 36.0625 81.1875 C36.0625 80.1975 36.0625 79.2075 36.0625 78.1875 C35.27875 77.919375 34.495 77.65125 33.6875 77.375 C31.0625 76.1875 31.0625 76.1875 29.0625 73.1875 C28.8671875 70.05078125 28.8671875 70.05078125 28.9375 66.5 C28.95554687 65.32050781 28.97359375 64.14101562 28.9921875 62.92578125 C29.01539062 62.02214844 29.03859375 61.11851563 29.0625 60.1875 C27.0825 59.6925 27.0825 59.6925 25.0625 59.1875 C25.0625 56.2175 25.0625 53.2475 25.0625 50.1875 C26.0525 49.8575 27.0425 49.5275 28.0625 49.1875 C28.124375 48.465625 28.18625 47.74375 28.25 47 C29.3271889 43.27126919 31.14790151 41.69541033 34.0625 39.1875 C35.38086295 38.49169733 36.71041086 37.81525567 38.0625 37.1875 C38.5575 36.1975 38.5575 36.1975 39.0625 35.1875 C42.0325 35.1875 45.0025 35.1875 48.0625 35.1875 C48.3925 36.1775 48.7225 37.1675 49.0625 38.1875 C50.1453125 38.2803125 50.1453125 38.2803125 51.25 38.375 C55.01365098 39.46227695 56.60120956 41.17925613 59.0625 44.1875 C59.875 47 59.875 47 60.0625 49.1875 C61.5475 49.6825 61.5475 49.6825 63.0625 50.1875 C63.1875 57.9375 63.1875 57.9375 62.0625 60.1875 C61.0725 60.1875 60.0825 60.1875 59.0625 60.1875 C59.12050781 61.06792969 59.17851563 61.94835937 59.23828125 62.85546875 C59.60006238 72.16874881 59.60006238 72.16874881 58.01953125 75.1640625 C56.6875 76.5 56.6875 76.5 54.0625 78.1875 C53.4025 78.1875 52.7425 78.1875 52.0625 78.1875 C52.0625 79.1775 52.0625 80.1675 52.0625 81.1875 C52.98482422 81.47753906 52.98482422 81.47753906 53.92578125 81.7734375 C54.73402344 82.03382812 55.54226562 82.29421875 56.375 82.5625 C57.17550781 82.81773438 57.97601563 83.07296875 58.80078125 83.3359375 C61.0625 84.1875 61.0625 84.1875 64.0625 86.1875 C64.32947888 88.81212244 64.41082984 91.19815933 64.35546875 93.8203125 C64.35122391 94.57214813 64.34697906 95.32398376 64.34260559 96.09860229 C64.3257917 98.50359685 64.28813624 100.90775809 64.25 103.3125 C64.23495659 104.94139416 64.22126758 106.57030144 64.20898438 108.19921875 C64.17587954 112.19563434 64.12408009 116.19142582 64.0625 120.1875 C62.7425 120.1875 61.4225 120.1875 60.0625 120.1875 C60.0625 117.2175 60.0625 114.2475 60.0625 111.1875 C55.4425 111.1875 50.8225 111.1875 46.0625 111.1875 C46.0625 114.1575 46.0625 117.1275 46.0625 120.1875 C44.7425 120.1875 43.4225 120.1875 42.0625 120.1875 C42.0625 117.2175 42.0625 114.2475 42.0625 111.1875 C40.7425 111.5175 39.4225 111.8475 38.0625 112.1875 C38.5575 115.6525 38.5575 115.6525 39.0625 119.1875 C37.7425 119.5175 36.4225 119.8475 35.0625 120.1875 C32.1546032 113.04263702 30.30714834 105.72463224 28.4375 98.25 C27.82342998 95.80260111 27.20640968 93.35593989 26.5859375 90.91015625 C26.31700684 89.83515869 26.04807617 88.76016113 25.77099609 87.65258789 C25.29966647 85.26324287 25.29966647 85.26324287 24.0625 84.1875 C23.7325 95.7375 23.4025 107.2875 23.0625 119.1875 C21.7425 119.5175 20.4225 119.8475 19.0625 120.1875 C18.0625 119.1875 18.0625 119.1875 17.96484375 116.46484375 C17.99739583 113.37239583 18.02994792 110.27994792 18.0625 107.1875 C12.7825 107.1875 7.5025 107.1875 2.0625 107.1875 C2.0625 111.4775 2.0625 115.7675 2.0625 120.1875 C0.7425 120.1875 -0.5775 120.1875 -1.9375 120.1875 C-1.9375 115.8975 -1.9375 111.6075 -1.9375 107.1875 C-7.2175 107.1875 -12.4975 107.1875 -17.9375 107.1875 C-17.9375 111.1475 -17.9375 115.1075 -17.9375 119.1875 C-19.9175 119.6825 -19.9175 119.6825 -21.9375 120.1875 C-23.94253509 118.18246491 -23.19338663 114.18724556 -23.25390625 111.43359375 C-23.27468735 110.65814713 -23.29546844 109.8827005 -23.31687927 109.08375549 C-23.38245802 106.59759692 -23.44129799 104.11132955 -23.5 101.625 C-23.54317733 99.94334796 -23.58679136 98.26170706 -23.63085938 96.58007812 C-23.73814779 92.44933129 -23.83939132 88.31847464 -23.9375 84.1875 C-26.52181276 91.62236901 -28.60864513 99.14341702 -30.625 106.75 C-30.94533203 107.94947266 -31.26566406 109.14894531 -31.59570312 110.38476562 C-32.37877448 113.31836131 -33.15931087 116.25260618 -33.9375 119.1875 C-35.9175 119.6825 -35.9175 119.6825 -37.9375 120.1875 C-38.91870464 117.13486336 -38.91870464 115.24013664 -37.9375 112.1875 C-39.2575 111.8575 -40.5775 111.5275 -41.9375 111.1875 C-41.9375 114.1575 -41.9375 117.1275 -41.9375 120.1875 C-43.2575 120.1875 -44.5775 120.1875 -45.9375 120.1875 C-45.9375 117.2175 -45.9375 114.2475 -45.9375 111.1875 C-50.5575 111.1875 -55.1775 111.1875 -59.9375 111.1875 C-59.9375 114.1575 -59.9375 117.1275 -59.9375 120.1875 C-61.2575 120.1875 -62.5775 120.1875 -63.9375 120.1875 C-63.9375 108.9675 -63.9375 97.7475 -63.9375 86.1875 C-53.9375 81.1875 -53.9375 81.1875 -51.9375 81.1875 C-51.9375 80.1975 -51.9375 79.2075 -51.9375 78.1875 C-52.72125 77.919375 -53.505 77.65125 -54.3125 77.375 C-56.9375 76.1875 -56.9375 76.1875 -58.9375 73.1875 C-59.1328125 70.05078125 -59.1328125 70.05078125 -59.0625 66.5 C-59.04445313 65.32050781 -59.02640625 64.14101562 -59.0078125 62.92578125 C-58.98460937 62.02214844 -58.96140625 61.11851563 -58.9375 60.1875 C-60.2575 59.5275 -61.5775 58.8675 -62.9375 58.1875 C-62.9375 55.5475 -62.9375 52.9075 -62.9375 50.1875 C-61.4525 49.6925 -61.4525 49.6925 -59.9375 49.1875 C-59.9375 48.1975 -59.9375 47.2075 -59.9375 46.1875 C-58.2875 46.5175 -56.6375 46.8475 -54.9375 47.1875 C-54.9375 47.8475 -54.9375 48.5075 -54.9375 49.1875 C-52.9575 49.1875 -50.9775 49.1875 -48.9375 49.1875 C-48.9375 47.2075 -48.9375 45.2275 -48.9375 43.1875 C-51.4125 43.6825 -51.4125 43.6825 -53.9375 44.1875 C-54.2675 42.8675 -54.5975 41.5475 -54.9375 40.1875 C-51.9375 38.1875 -51.9375 38.1875 -48.9375 38.1875 C-48.6075 37.1975 -48.2775 36.2075 -47.9375 35.1875 C-46.50094146 35.10618537 -45.0630517 35.04816441 -43.625 35 C-42.42423828 34.94779297 -42.42423828 34.94779297 -41.19921875 34.89453125 C-38.39892168 35.25726403 -37.75320147 36.09792177 -35.9375 38.1875 C-34.4215625 39.1465625 -34.4215625 39.1465625 -32.875 40.125 C-30.05458476 42.10529155 -28.97114315 42.98320625 -27.9375 46.1875 C-27.9375 47.1775 -27.9375 48.1675 -27.9375 49.1875 C-26.9475 49.5175 -25.9575 49.8475 -24.9375 50.1875 C-24.9375 53.1575 -24.9375 56.1275 -24.9375 59.1875 C-26.9175 59.6825 -26.9175 59.6825 -28.9375 60.1875 C-28.87949219 61.06792969 -28.82148437 61.94835937 -28.76171875 62.85546875 C-28.39993762 72.16874881 -28.39993762 72.16874881 -29.98046875 75.1640625 C-31.3125 76.5 -31.3125 76.5 -33.9375 78.1875 C-34.5975 78.1875 -35.2575 78.1875 -35.9375 78.1875 C-35.9375 79.1775 -35.9375 80.1675 -35.9375 81.1875 C-33.9575 81.8475 -31.9775 82.5075 -29.9375 83.1875 C-29.855 82.300625 -29.7725 81.41375 -29.6875 80.5 C-28.80217008 76.58979284 -27.71831968 75.05875284 -24.9375 72.1875 C-21.91695422 70.75144623 -18.95796849 69.60512931 -15.80664062 68.515625 C-13.71323296 67.76570944 -13.71323296 67.76570944 -10.9375 66.1875 C-9.90132306 63.60891436 -9.90132306 63.60891436 -9.9375 61.1875 C-10.659375 61.14625 -11.38125 61.105 -12.125 61.0625 C-16.19345574 59.79675821 -17.62175334 57.69420208 -19.9375 54.1875 C-20.25 50.8125 -20.25 50.8125 -19.9375 48.1875 C-20.700625 47.94 -21.46375 47.6925 -22.25 47.4375 C-25.31504038 46.01189982 -26.39860282 45.18429976 -27.9375 42.1875 C-28.36174242 36.03598485 -28.36174242 36.03598485 -26.9375 33.1875 C-26.7415186 30.36536782 -26.61958444 27.54557503 -26.51171875 24.71875 C-26.22748047 23.46578125 -26.22748047 23.46578125 -25.9375 22.1875 C-23.91796875 21.01171875 -23.91796875 21.01171875 -21.9375 20.1875 C-21.751875 18.8571875 -21.751875 18.8571875 -21.5625 17.5 C-20.70496353 12.95505672 -18.32179898 10.26269439 -14.9375 7.1875 C-11.85261809 5.28340455 -10.76930364 5.1875 -6.9375 5.1875 C-6.793125 4.548125 -6.64875 3.90875 -6.5 3.25 C-5.45239705 -0.59121083 -3.6883204 0.02645854 0 0 Z M-1.9375 5.1875 C-1.9375 10.1375 -1.9375 15.0875 -1.9375 20.1875 C-0.6175 20.1875 0.7025 20.1875 2.0625 20.1875 C2.0625 15.2375 2.0625 10.2875 2.0625 5.1875 C0.7425 5.1875 -0.5775 5.1875 -1.9375 5.1875 Z M7.0625 9.1875 C7.0625 12.8175 7.0625 16.4475 7.0625 20.1875 C10.3625 20.1875 13.6625 20.1875 17.0625 20.1875 C16.7325 18.5375 16.4025 16.8875 16.0625 15.1875 C14.0825 15.5175 12.1025 15.8475 10.0625 16.1875 C10.3925 14.5375 10.7225 12.8875 11.0625 11.1875 C9.7425 10.5275 8.4225 9.8675 7.0625 9.1875 Z M-9.5625 10.4375 C-10.01625 11.015 -10.47 11.5925 -10.9375 12.1875 C-10.70992269 14.35049211 -10.70992269 14.35049211 -9.9375 16.1875 C-12.9075 15.6925 -12.9075 15.6925 -15.9375 15.1875 C-16.2675 16.8375 -16.5975 18.4875 -16.9375 20.1875 C-13.6375 20.1875 -10.3375 20.1875 -6.9375 20.1875 C-6.9375 16.5575 -6.9375 12.9275 -6.9375 9.1875 C-8.14708807 9.08588154 -8.14708807 9.08588154 -9.5625 10.4375 Z M-20.9375 25.1875 C-20.9375 26.1775 -20.9375 27.1675 -20.9375 28.1875 C-7.0775 28.1875 6.7825 28.1875 21.0625 28.1875 C21.0625 27.1975 21.0625 26.2075 21.0625 25.1875 C7.2025 25.1875 -6.6575 25.1875 -20.9375 25.1875 Z M-15.9375 33.1875 C-15.999375 35.889375 -16.06125 38.59125 -16.125 41.375 C-16.15231201 42.21699951 -16.17962402 43.05899902 -16.20776367 43.92651367 C-16.25796141 48.4675199 -16.04602855 51.60696061 -12.9375 55.1875 C-8.84112182 57.61606707 -4.57600211 57.48884873 0.0625 57.4375 C0.76117188 57.44523437 1.45984375 57.45296875 2.1796875 57.4609375 C6.22498879 57.44567221 9.54996182 57.26993335 13.0625 55.1875 C16.7515849 50.93825037 16.42257276 46.69522985 16.25 41.375 C16.188125 38.673125 16.12625 35.97125 16.0625 33.1875 C5.5025 33.1875 -5.0575 33.1875 -15.9375 33.1875 Z M-21.9375 34.1875 C-22.2675 36.4975 -22.5975 38.8075 -22.9375 41.1875 C-21.4525 42.1775 -21.4525 42.1775 -19.9375 43.1875 C-19.9375 40.2175 -19.9375 37.2475 -19.9375 34.1875 C-20.5975 34.1875 -21.2575 34.1875 -21.9375 34.1875 Z M20.0625 34.1875 C20.0625 37.1575 20.0625 40.1275 20.0625 43.1875 C21.0525 42.5275 22.0425 41.8675 23.0625 41.1875 C22.7325 38.8775 22.4025 36.5675 22.0625 34.1875 C21.4025 34.1875 20.7425 34.1875 20.0625 34.1875 Z M-44.9375 39.1875 C-44.9375 42.4875 -44.9375 45.7875 -44.9375 49.1875 C-44.2775 49.1875 -43.6175 49.1875 -42.9375 49.1875 C-42.9375 45.8875 -42.9375 42.5875 -42.9375 39.1875 C-43.5975 39.1875 -44.2575 39.1875 -44.9375 39.1875 Z M43.0625 39.1875 C43.0625 42.4875 43.0625 45.7875 43.0625 49.1875 C43.7225 49.1875 44.3825 49.1875 45.0625 49.1875 C45.0625 45.8875 45.0625 42.5875 45.0625 39.1875 C44.4025 39.1875 43.7425 39.1875 43.0625 39.1875 Z M-37.9375 43.1875 C-37.9375 45.1675 -37.9375 47.1475 -37.9375 49.1875 C-36.2875 49.1875 -34.6375 49.1875 -32.9375 49.1875 C-33.71880071 46.69197516 -33.71880071 46.69197516 -34.9375 44.1875 C-35.9275 43.8575 -36.9175 43.5275 -37.9375 43.1875 Z M49.0625 43.1875 C49.0625 45.1675 49.0625 47.1475 49.0625 49.1875 C51.0425 49.1875 53.0225 49.1875 55.0625 49.1875 C54.01375002 46.56562506 53.41318687 45.39378639 50.9375 43.9375 C50.009375 43.56625 50.009375 43.56625 49.0625 43.1875 Z M35 45.0625 C32.83791538 46.95453874 32.83791538 46.95453874 33.0625 49.1875 C34.7125 49.1875 36.3625 49.1875 38.0625 49.1875 C38.0625 47.2075 38.0625 45.2275 38.0625 43.1875 C36.7212587 43.07538787 36.7212587 43.07538787 35 45.0625 Z M-57.9375 53.1875 C-57.9375 53.8475 -57.9375 54.5075 -57.9375 55.1875 C-48.6975 55.1875 -39.4575 55.1875 -29.9375 55.1875 C-29.9375 54.5275 -29.9375 53.8675 -29.9375 53.1875 C-39.1775 53.1875 -48.4175 53.1875 -57.9375 53.1875 Z M30.0625 53.1875 C30.0625 53.8475 30.0625 54.5075 30.0625 55.1875 C39.3025 55.1875 48.5425 55.1875 58.0625 55.1875 C58.0625 54.5275 58.0625 53.8675 58.0625 53.1875 C48.8225 53.1875 39.5825 53.1875 30.0625 53.1875 Z M-53.9375 60.1875 C-54.01832094 62.14516281 -54.07660778 64.10376728 -54.125 66.0625 C-54.15980469 67.15304688 -54.19460937 68.24359375 -54.23046875 69.3671875 C-54.13378906 70.29789063 -54.03710938 71.22859375 -53.9375 72.1875 C-50.25827133 74.64031911 -48.31490649 74.45573919 -43.9375 74.4375 C-42.7 74.44265625 -41.4625 74.4478125 -40.1875 74.453125 C-36.79076856 74.44001361 -36.79076856 74.44001361 -33.9375 72.1875 C-33.57251966 69.29141601 -33.57251966 69.29141601 -33.75 66.0625 C-33.77707031 64.96679688 -33.80414063 63.87109375 -33.83203125 62.7421875 C-33.86683594 61.89914063 -33.90164062 61.05609375 -33.9375 60.1875 C-36.5775 60.1875 -39.2175 60.1875 -41.9375 60.1875 C-42.2675 61.5075 -42.5975 62.8275 -42.9375 64.1875 C-43.5975 64.1875 -44.2575 64.1875 -44.9375 64.1875 C-45.2675 62.8675 -45.5975 61.5475 -45.9375 60.1875 C-48.5775 60.1875 -51.2175 60.1875 -53.9375 60.1875 Z M34.0625 60.1875 C33.98167906 62.14516281 33.92339222 64.10376728 33.875 66.0625 C33.84019531 67.15304688 33.80539063 68.24359375 33.76953125 69.3671875 C33.86621094 70.29789063 33.96289062 71.22859375 34.0625 72.1875 C37.74172867 74.64031911 39.68509351 74.45573919 44.0625 74.4375 C45.3 74.44265625 46.5375 74.4478125 47.8125 74.453125 C51.20923144 74.44001361 51.20923144 74.44001361 54.0625 72.1875 C54.42748034 69.29141601 54.42748034 69.29141601 54.25 66.0625 C54.22292969 64.96679688 54.19585937 63.87109375 54.16796875 62.7421875 C54.13316406 61.89914063 54.09835938 61.05609375 54.0625 60.1875 C51.4225 60.1875 48.7825 60.1875 46.0625 60.1875 C45.7325 61.5075 45.4025 62.8275 45.0625 64.1875 C44.4025 64.1875 43.7425 64.1875 43.0625 64.1875 C42.7325 62.8675 42.4025 61.5475 42.0625 60.1875 C39.4225 60.1875 36.7825 60.1875 34.0625 60.1875 Z M-4.9375 61.1875 C-4.9375 62.5075 -4.9375 63.8275 -4.9375 65.1875 C-1.6375 65.1875 1.6625 65.1875 5.0625 65.1875 C5.0625 63.8675 5.0625 62.5475 5.0625 61.1875 C1.7625 61.1875 -1.5375 61.1875 -4.9375 61.1875 Z M-2.9375 70.1875 C-2.2775 71.5075 -1.6175 72.8275 -0.9375 74.1875 C-0.2775 74.1875 0.3825 74.1875 1.0625 74.1875 C1.7225 72.8675 2.3825 71.5475 3.0625 70.1875 C1.0825 70.1875 -0.8975 70.1875 -2.9375 70.1875 Z M-15.5625 73.6875 C-17.33625 74.5125 -19.11 75.3375 -20.9375 76.1875 C-19.9475 80.8075 -18.9575 85.4275 -17.9375 90.1875 C-12.6575 90.1875 -7.3775 90.1875 -1.9375 90.1875 C-1.30769804 82.7348435 -2.06800034 78.89419276 -6.4296875 72.8046875 C-6.92726563 72.27101563 -7.42484375 71.73734375 -7.9375 71.1875 C-10.85682117 71.1875 -12.92793277 72.46211989 -15.5625 73.6875 Z M-46.9375 78.1875 C-46.9375 78.8475 -46.9375 79.5075 -46.9375 80.1875 C-44.9575 80.1875 -42.9775 80.1875 -40.9375 80.1875 C-40.9375 79.5275 -40.9375 78.8675 -40.9375 78.1875 C-42.9175 78.1875 -44.8975 78.1875 -46.9375 78.1875 Z M41.0625 78.1875 C41.0625 78.8475 41.0625 79.5075 41.0625 80.1875 C43.0425 80.1875 45.0225 80.1875 47.0625 80.1875 C47.0625 79.5275 47.0625 78.8675 47.0625 78.1875 C45.0825 78.1875 43.1025 78.1875 41.0625 78.1875 Z M-59.9375 89.1875 C-59.9375 92.1575 -59.9375 95.1275 -59.9375 98.1875 C-55.3175 98.1875 -50.6975 98.1875 -45.9375 98.1875 C-46.39851836 93.48511275 -46.96926403 89.95487643 -49.9375 86.1875 C-53.80445678 86.1875 -56.4463452 87.60659971 -59.9375 89.1875 Z M-37.9375 86.1875 C-41.55343557 91.73452838 -41.55343557 91.73452838 -41.9375 98.1875 C-39.2975 98.1875 -36.6575 98.1875 -33.9375 98.1875 C-32.30799588 94.06581311 -31.67485399 91.48049643 -32.9375 87.1875 C-34.5875 86.8575 -36.2375 86.5275 -37.9375 86.1875 Z M32.0625 88.1875 C32.206875 89.46625 32.35125 90.745 32.5 92.0625 C32.58121094 92.78179687 32.66242188 93.50109375 32.74609375 94.2421875 C32.97542961 96.26154316 32.97542961 96.26154316 34.0625 98.1875 C36.7025 98.1875 39.3425 98.1875 42.0625 98.1875 C41.60148164 93.48511275 41.03073597 89.95487643 38.0625 86.1875 C34.87759993 85.9101499 34.87759993 85.9101499 32.0625 88.1875 Z M50.0625 86.1875 C46.44656443 91.73452838 46.44656443 91.73452838 46.0625 98.1875 C47.7125 98.1875 49.3625 98.1875 51.0625 98.1875 C51.0625 99.5075 51.0625 100.8275 51.0625 102.1875 C49.4125 102.1875 47.7625 102.1875 46.0625 102.1875 C46.0625 103.5075 46.0625 104.8275 46.0625 106.1875 C50.6825 106.1875 55.3025 106.1875 60.0625 106.1875 C60.0625 104.8675 60.0625 103.5475 60.0625 102.1875 C58.4125 102.1875 56.7625 102.1875 55.0625 102.1875 C55.0625 100.8675 55.0625 99.5475 55.0625 98.1875 C56.7125 98.1875 58.3625 98.1875 60.0625 98.1875 C60.0625 95.2175 60.0625 92.2475 60.0625 89.1875 C55.25040099 86.89704986 55.25040099 86.89704986 50.0625 86.1875 Z M-17.9375 95.1875 C-17.9375 97.4975 -17.9375 99.8075 -17.9375 102.1875 C-12.6575 102.1875 -7.3775 102.1875 -1.9375 102.1875 C-1.9375 99.8775 -1.9375 97.5675 -1.9375 95.1875 C-7.2175 95.1875 -12.4975 95.1875 -17.9375 95.1875 Z M2.0625 95.1875 C2.0625 97.4975 2.0625 99.8075 2.0625 102.1875 C7.3425 102.1875 12.6225 102.1875 18.0625 102.1875 C18.0625 99.8775 18.0625 97.5675 18.0625 95.1875 C12.7825 95.1875 7.5025 95.1875 2.0625 95.1875 Z M-59.9375 102.1875 C-59.9375 103.5075 -59.9375 104.8275 -59.9375 106.1875 C-55.3175 106.1875 -50.6975 106.1875 -45.9375 106.1875 C-45.9375 104.8675 -45.9375 103.5475 -45.9375 102.1875 C-50.5575 102.1875 -55.1775 102.1875 -59.9375 102.1875 Z M-41.9375 102.1875 C-41.9375 103.5075 -41.9375 104.8275 -41.9375 106.1875 C-39.9575 106.1875 -37.9775 106.1875 -35.9375 106.1875 C-35.6075 104.8675 -35.2775 103.5475 -34.9375 102.1875 C-37.2475 102.1875 -39.5575 102.1875 -41.9375 102.1875 Z M35.0625 102.1875 C35.3925 103.5075 35.7225 104.8275 36.0625 106.1875 C38.0425 106.1875 40.0225 106.1875 42.0625 106.1875 C42.0625 104.8675 42.0625 103.5475 42.0625 102.1875 C39.7525 102.1875 37.4425 102.1875 35.0625 102.1875 Z " fill="#000000" transform="translate(63.9375,3.8125)"/>
<path d="M0 0 C1.32 0 2.64 0 4 0 C4 0.66 4 1.32 4 2 C5.32 2 6.64 2 8 2 C8 1.34 8 0.68 8 0 C9.65 0.33 11.3 0.66 13 1 C11.25 5.875 11.25 5.875 9 7 C6.125 7.3125 6.125 7.3125 3 7 C0.625 5 0.625 5 -1 3 C-0.67 2.01 -0.34 1.02 0 0 Z " fill="#000000" transform="translate(58,50)"/>
<path d="M0 0 C1.11375 0.2475 1.11375 0.2475 2.25 0.5 C5.19006578 1.11925696 5.19006578 1.11925696 9 1 C8.67 2.65 8.34 4.3 8 6 C4.625 6.625 4.625 6.625 1 7 C0.34 6.34 -0.32 5.68 -1 5 C-0.625 2.375 -0.625 2.375 0 0 Z " fill="#000000" transform="translate(104,69)"/>
<path d="M0 0 C1.11375 0.2475 1.11375 0.2475 2.25 0.5 C5.19006578 1.11925696 5.19006578 1.11925696 9 1 C8.67 2.65 8.34 4.3 8 6 C5.1875 6.625 5.1875 6.625 2 7 C1.01 6.34 0.02 5.68 -1 5 C-0.67 3.35 -0.34 1.7 0 0 Z " fill="#000000" transform="translate(16,69)"/>
<path d="M0 0 C1.32 0 2.64 0 4 0 C4 3.3 4 6.6 4 10 C2.68 10 1.36 10 0 10 C0 6.7 0 3.4 0 0 Z " fill="#000000" transform="translate(62,38)"/>
</svg>
