<?xml version="1.0" encoding="UTF-8"?>
<svg version="1.1" xmlns="http://www.w3.org/2000/svg" width="128" height="128">
<path d="M0 0 C1.12855637 0.71277244 2.23681107 1.45969793 3.3125 2.25 C4.199375 2.8275 5.08625 3.405 6 4 C13.51006204 11.30708739 15.20770307 19.79361247 15.625 30 C15.48967058 34.42606819 14.67328459 37.47274466 12.3125 41.25 C9.125 42.1875 9.125 42.1875 6.3125 42.25 C6.27125 43.075 6.23 43.9 6.1875 44.75 C5.31354271 48.24582914 4.42052524 49.69221693 2.2578125 52.46875 C1.70883301 53.17966797 1.15985352 53.89058594 0.59423828 54.62304688 C-0.04022217 55.42838867 -0.04022217 55.42838867 -0.6875 56.25 C0.50187164 56.23667633 0.50187164 56.23667633 1.715271 56.2230835 C9.18979184 56.14291665 16.66410408 56.08202538 24.13894272 56.04275131 C27.98181252 56.02188116 31.82432693 55.99357494 35.66699219 55.94824219 C39.37581115 55.90476255 43.08428842 55.88085858 46.79334259 55.87049103 C48.20796335 55.86310333 49.62256552 55.84867657 51.03704071 55.82707977 C53.01897423 55.79802385 55.001252 55.79636592 56.98339844 55.79589844 C58.11146912 55.78701599 59.23953979 55.77813354 60.40179443 55.76898193 C63.95920311 56.35687302 65.10294688 57.46527602 67.3125 60.25 C68.91955391 64.02483104 68.45616333 68.33179854 68.4453125 72.375 C68.44626923 73.15891113 68.44722595 73.94282227 68.44821167 74.75048828 C68.44889088 76.40462321 68.44705469 78.05876084 68.44287109 79.71289062 C68.43751917 82.24094647 68.44282485 84.76882466 68.44921875 87.296875 C68.44855792 88.90625039 68.44727666 90.51562567 68.4453125 92.125 C68.44733673 92.8792627 68.44936096 93.63352539 68.45144653 94.41064453 C68.43622564 97.82712801 68.38840397 100.98489321 67.3125 104.25 C68.6325 104.25 69.9525 104.25 71.3125 104.25 C71.3125 110.19 71.3125 116.13 71.3125 122.25 C29.0725 122.25 -13.1675 122.25 -56.6875 122.25 C-56.6875 116.31 -56.6875 110.37 -56.6875 104.25 C-54.7075 103.755 -54.7075 103.755 -52.6875 103.25 C-52.70844727 102.31728271 -52.72939453 101.38456543 -52.75097656 100.42358398 C-52.81947396 96.93650274 -52.86945446 93.45014459 -52.90722656 89.96264648 C-52.92724363 88.45829938 -52.95446627 86.95402911 -52.98925781 85.44995117 C-53.03821945 83.27763838 -53.06056653 81.10636094 -53.078125 78.93359375 C-53.09907227 77.62962646 -53.12001953 76.32565918 -53.14160156 74.98217773 C-52.38841588 68.79188228 -49.41859129 64.38351372 -44.625 60.375 C-43.95339844 59.80007812 -43.28179687 59.22515625 -42.58984375 58.6328125 C-38.97185101 56.0028958 -35.34145992 55.98839326 -31 55.6875 C-29.82050781 55.60371094 -28.64101563 55.51992188 -27.42578125 55.43359375 C-26.52214844 55.37300781 -25.61851563 55.31242187 -24.6875 55.25 C-25.10902344 54.81429687 -25.53054687 54.37859375 -25.96484375 53.9296875 C-29.45115195 50.13986541 -31.42630963 47.60440266 -31.6875 42.25 C-32.63625 42.146875 -33.585 42.04375 -34.5625 41.9375 C-37.6875 41.25 -37.6875 41.25 -39.6875 38.25 C-40.14604692 34.87023943 -40.05782888 31.470079 -40.0625 28.0625 C-40.08699219 27.14146484 -40.11148438 26.22042969 -40.13671875 25.27148438 C-40.17255575 16.85576186 -37.6107033 10.33773673 -31.6875 4.25 C-22.8977322 -2.04368769 -10.26932844 -5.03592068 0 0 Z M-30.0625 10.6875 C-34.09321584 15.84637815 -34.94578677 19.66368726 -34.6875 26.25 C-24.20657279 26.77404636 -15.5589476 25.17723947 -7.35546875 18.4453125 C-5.6875 17.25 -5.6875 17.25 -3.0625 16.875 C0.19182321 18.75908186 1.72855918 21.36857293 3.6875 24.53515625 C5.22977609 26.54058256 5.22977609 26.54058256 8 26.49609375 C8.763125 26.41488281 9.52625 26.33367188 10.3125 26.25 C9.14131891 18.45239962 7.44494752 12.88337248 1.375 7.5 C-8.74400581 0.06562838 -21.70966678 1.49135189 -30.0625 10.6875 Z M-8.4375 24.625 C-14.53948102 28.44818811 -19.56224008 29.6601092 -26.6875 30.25 C-27.5918502 39.42595902 -27.5918502 39.42595902 -25 47.9375 C-21.02819744 51.90930256 -18.38574156 53.42556898 -12.75 53.6875 C-8.01097205 53.53235325 -5.27906711 52.49117032 -1.6875 49.25 C0.73660003 45.9900034 1.86565355 43.27161802 2.3125 39.25 C2.40015625 38.49332031 2.4878125 37.73664062 2.578125 36.95703125 C2.90982296 31.97402331 2.67847813 29.0133044 -0.625 25.125 C-2.18859223 23.46341762 -2.18859223 23.46341762 -3.6875 22.25 C-5.50751434 22.25 -6.95430644 23.66036659 -8.4375 24.625 Z M-33.6875 31.25 C-34.0175 32.9 -34.3475 34.55 -34.6875 36.25 C-33.6975 36.58 -32.7075 36.91 -31.6875 37.25 C-31.6875 35.27 -31.6875 33.29 -31.6875 31.25 C-32.3475 31.25 -33.0075 31.25 -33.6875 31.25 Z M7.3125 31.25 C7.3125 33.23 7.3125 35.21 7.3125 37.25 C7.9725 36.92 8.6325 36.59 9.3125 36.25 C8.9825 34.6 8.6525 32.95 8.3125 31.25 C7.9825 31.25 7.6525 31.25 7.3125 31.25 Z M-12.75 57.75 C-13.85472656 57.8428125 -14.95945313 57.935625 -16.09765625 58.03125 C-16.95230469 58.1034375 -17.80695312 58.175625 -18.6875 58.25 C-18.11297254 62.18075644 -18.11297254 62.18075644 -15.6875 65.25 C-11.55919954 65.69462008 -11.55919954 65.69462008 -7.875 64.0625 C-6.41211964 61.82968261 -6.04244045 59.87655933 -5.6875 57.25 C-8.04025691 57.25 -10.40842218 57.5528145 -12.75 57.75 Z M-44.2421875 66.51953125 C-49.1524772 72.39860784 -48.09236131 80.17272882 -48.125 87.375 C-48.15787109 88.66277344 -48.19074219 89.95054688 -48.22460938 91.27734375 C-48.23169922 92.50839844 -48.23878906 93.73945312 -48.24609375 95.0078125 C-48.25954834 96.1333252 -48.27300293 97.25883789 -48.28686523 98.41845703 C-47.95414026 101.40349542 -47.95414026 101.40349542 -45.51123047 103.12182617 C-42.41842125 104.35750587 -40.26863278 104.59622138 -36.94921875 104.54296875 C-35.88251953 104.53330078 -34.81582031 104.52363281 -33.71679688 104.51367188 C-32.61400391 104.48853516 -31.51121094 104.46339844 -30.375 104.4375 C-29.25287109 104.42396484 -28.13074219 104.41042969 -26.97460938 104.39648438 C-24.21174771 104.3612138 -21.44987171 104.31192235 -18.6875 104.25 C-18.6875 100.95 -18.6875 97.65 -18.6875 94.25 C-25.2875 94.25 -31.8875 94.25 -38.6875 94.25 C-38.6875 92.93 -38.6875 91.61 -38.6875 90.25 C-34.12427759 90.33095102 -29.56238408 90.4437929 -25 90.5625 C-23.70642578 90.58505859 -22.41285156 90.60761719 -21.08007812 90.63085938 C-19.83291016 90.66630859 -18.58574219 90.70175781 -17.30078125 90.73828125 C-16.15391846 90.76446533 -15.00705566 90.79064941 -13.82543945 90.81762695 C-10.6875 91.25 -10.6875 91.25 -8.46166992 92.78198242 C-4.59017017 95.10749274 -4.59017017 95.10749274 5.3125 94.25 C5.3125 83.03 5.3125 71.81 5.3125 60.25 C3.0025 60.25 0.6925 60.25 -1.6875 60.25 C-2.120625 61.36375 -2.55375 62.4775 -3 63.625 C-4.6875 67.25 -4.6875 67.25 -7.6875 69.25 C-11.07960287 69.79618606 -14.2940435 69.78580892 -17.6875 69.25 C-20.74637297 67.00266476 -22.24467008 65.51036208 -23.5 61.9375 C-23.561875 61.380625 -23.62375 60.82375 -23.6875 60.25 C-31.95821893 59.90538671 -37.87360823 60.995159 -44.2421875 66.51953125 Z M10.3125 62.25 C9.87667251 64.14088437 9.87667251 64.14088437 9.97192383 66.33251953 C9.97215042 67.17324005 9.97237701 68.01396057 9.97261047 68.88015747 C9.98809433 69.78853363 10.00357819 70.69690979 10.01953125 71.6328125 C10.02377609 72.56221649 10.02802094 73.49162048 10.03239441 74.44918823 C10.04921988 77.42475056 10.08687897 80.39964156 10.125 83.375 C10.14004184 85.38931315 10.15373112 87.40363689 10.16601562 89.41796875 C10.19913606 94.36223879 10.25094471 99.30600549 10.3125 104.25 C17.21748319 104.35137822 24.12227465 104.4214562 31.02783203 104.46972656 C33.37718884 104.48984814 35.72649554 104.51714851 38.07568359 104.55175781 C41.45162315 104.6002504 44.82690086 104.62296357 48.203125 104.640625 C49.25429504 104.66127014 50.30546509 104.68191528 51.38848877 104.70318604 C56.92972112 104.74189335 56.92972112 104.74189335 61.97363281 102.73339844 C63.85920415 99.23594554 63.88536993 96.00207274 63.84375 92.125 C63.8475769 91.34108887 63.85140381 90.55717773 63.85534668 89.74951172 C63.85806353 88.09536451 63.8507181 86.44117417 63.83398438 84.78710938 C63.81256892 82.25813838 63.83379097 79.73200786 63.859375 77.203125 C63.85673168 75.59374374 63.85160661 73.98436425 63.84375 72.375 C63.85184692 71.6207373 63.85994385 70.86647461 63.86828613 70.08935547 C63.8112647 66.88959707 63.49688711 64.57968247 61.92602539 61.77099609 C57.76448544 59.34910035 53.69264958 59.71945812 48.96484375 59.7890625 C47.45247887 59.79043716 47.45247887 59.79043716 45.90956116 59.7918396 C43.78039841 59.79787639 41.65124419 59.81362464 39.5222168 59.83837891 C36.25863456 59.87490337 32.99618722 59.87939811 29.73242188 59.87890625 C27.66405266 59.8887368 25.59569116 59.90039353 23.52734375 59.9140625 C22.06010109 59.91740097 22.06010109 59.91740097 20.56321716 59.92080688 C19.65539993 59.93356659 18.7475827 59.94632629 17.81225586 59.95947266 C17.01379745 59.96709625 16.21533905 59.97471985 15.39268494 59.98257446 C13.0073237 60.13272761 13.0073237 60.13272761 10.3125 62.25 Z M-13.6875 95.25 C-13.6875 98.22 -13.6875 101.19 -13.6875 104.25 C-11.0475 104.25 -8.4075 104.25 -5.6875 104.25 C-7.03546405 99.83848129 -8.91473417 97.86191481 -12.6875 95.25 C-13.0175 95.25 -13.3475 95.25 -13.6875 95.25 Z M-1.6875 98.25 C-1.3575 100.23 -1.0275 102.21 -0.6875 104.25 C1.2925 104.25 3.2725 104.25 5.3125 104.25 C5.3125 102.27 5.3125 100.29 5.3125 98.25 C3.0025 98.25 0.6925 98.25 -1.6875 98.25 Z M-52.6875 108.25 C-52.6875 111.55 -52.6875 114.85 -52.6875 118.25 C-13.0875 118.25 26.5125 118.25 67.3125 118.25 C67.3125 114.95 67.3125 111.65 67.3125 108.25 C27.7125 108.25 -11.8875 108.25 -52.6875 108.25 Z " fill="#000000" transform="translate(56.6875,3.75)"/>
<path d="M0 0 C3.125 1.875 3.125 1.875 5 5 C5.98876625 10.02622846 5.7769173 13.70513784 3.125 18.125 C-1.29486216 20.7769173 -4.97377154 20.98876625 -10 20 C-13.125 18.125 -13.125 18.125 -15 15 C-15.98876625 9.97377154 -15.7769173 6.29486216 -13.125 1.875 C-8.70513784 -0.7769173 -5.02622846 -0.98876625 0 0 Z M-10 7 C-10.33333333 10 -10.33333333 10 -10 13 C-8.11499729 15.31563087 -8.11499729 15.31563087 -5 15.25 C-1.88500271 15.31563087 -1.88500271 15.31563087 0 13 C0.33333333 10 0.33333333 10 0 7 C-1.88500271 4.68436913 -1.88500271 4.68436913 -5 4.75 C-8.11499729 4.68436913 -8.11499729 4.68436913 -10 7 Z " fill="#000000" transform="translate(98,76)"/>
</svg>
