<svg xmlns="http://www.w3.org/2000/svg" width="256px" height="250px" viewBox="0 0 250 250" fill="currentColor" preserveAspectRatio="xMidYMid">
<path  d="M 87.742188 44.1875 C 83.765625 45.070312 84.226562 51.023438 88.257812 51.023438 C 89.695312 51.023438 90.867188 51.710938 91.257812 52.757812 C 91.554688 53.5625 91.554688 53.757812 91.164062 54.566406 C 90.453125 56.078125 90.015625 56.152344 82.59375 56.152344 C 76.710938 56.152344 75.953125 56.203125 75.21875 56.59375 C 72.828125 57.886719 72.972656 61.546875 75.4375 62.816406 C 76.21875 63.207031 77.027344 63.234375 84.105469 63.183594 L 91.917969 63.109375 L 93.3125 62.453125 C 99.878906 59.375 100.78125 50.269531 94.945312 45.996094 C 92.992188 44.554688 89.722656 43.75 87.742188 44.1875 Z M 87.742188 44.1875 "/>
<path  d="M 73.976562 44.359375 C 73.78125 44.433594 73.339844 44.726562 73.046875 45.019531 C 71.289062 46.582031 71.386719 48.804688 73.242188 50.390625 C 73.949219 50.976562 74.171875 51.023438 76.464844 51.023438 C 80.03125 51.023438 81.25 50.242188 81.492188 47.828125 C 81.617188 46.386719 80.957031 45.164062 79.734375 44.578125 C 78.90625 44.1875 74.851562 44.042969 73.976562 44.359375 Z M 73.976562 44.359375 "/>
<path  d="M 122.582031 52.660156 C 121.800781 52.929688 120.605469 53.90625 118.3125 56.101562 C 114.28125 59.984375 100.828125 73 97.363281 76.367188 L 94.726562 78.929688 L 94.726562 71.53125 L 95.582031 71.53125 C 96.214844 71.53125 96.53125 71.386719 96.800781 70.945312 C 97.363281 70.09375 97.191406 69.042969 96.4375 68.675781 C 95.679688 68.285156 76.074219 68.210938 75.097656 68.601562 C 74.339844 68.871094 74.046875 69.875 74.460938 70.703125 C 74.78125 71.265625 76.050781 71.851562 76.683594 71.726562 C 76.976562 71.65625 77.027344 73.585938 77.101562 83.15625 L 77.148438 94.652344 L 74.292969 97.4375 C 72.730469 98.976562 70.996094 100.660156 70.433594 101.195312 C 69.875 101.734375 67.820312 103.710938 65.894531 105.589844 C 63.964844 107.496094 61.058594 110.277344 59.449219 111.816406 C 50.804688 120.042969 50.78125 120.070312 50.78125 122.4375 C 50.78125 125.632812 53.734375 128.273438 56.8125 127.832031 C 58.667969 127.585938 59.839844 126.734375 63.988281 122.65625 C 66.210938 120.460938 68.089844 118.652344 68.1875 118.652344 C 68.285156 118.652344 68.382812 129.664062 68.40625 143.117188 L 68.480469 167.601562 L 69.140625 168.824219 C 69.921875 170.335938 71.726562 172.070312 73.363281 172.851562 L 74.585938 173.460938 L 104.394531 173.535156 L 134.203125 173.585938 L 135.644531 172.535156 C 137.695312 171.019531 140.820312 168.117188 142.578125 166.136719 C 148.460938 159.472656 151.683594 151.050781 151.269531 143.40625 C 150.929688 136.988281 148.511719 131.542969 144.507812 128.171875 C 142.234375 126.292969 139.234375 124.976562 132.8125 123.023438 C 129.664062 122.070312 126.292969 120.945312 125.34375 120.484375 C 119.382812 117.75 115.550781 112.9375 114.355469 106.761719 C 112.695312 98.070312 117.96875 89.257812 126.855469 85.839844 C 130.152344 84.570312 132.421875 84.179688 136.351562 84.15625 C 140.453125 84.15625 143.628906 84.742188 147.339844 86.179688 C 155.273438 89.304688 162.132812 97.4375 161.179688 102.585938 C 160.523438 106.078125 156.933594 108.496094 153.636719 107.691406 C 150.953125 107.007812 149.585938 105.6875 148 102.246094 C 146.3125 98.585938 143.992188 96.753906 139.964844 95.851562 C 137.742188 95.359375 134.328125 95.335938 132.46875 95.824219 C 127.074219 97.242188 124.683594 102.757812 127.5625 107.105469 C 129.101562 109.421875 130.785156 110.304688 137.816406 112.425781 C 145.359375 114.722656 147.242188 115.503906 150.78125 117.796875 C 158.054688 122.535156 162.769531 130.515625 163.792969 139.941406 C 164.964844 150.539062 161.816406 161.28125 154.734375 170.851562 C 153.808594 172.117188 153.003906 173.265625 152.929688 173.414062 C 152.855469 173.632812 154.710938 173.679688 160.203125 173.65625 C 175.21875 173.535156 175.539062 173.511719 176.832031 172.925781 C 178.539062 172.117188 180.46875 170.164062 181.296875 168.382812 L 182.007812 166.871094 L 182.128906 142.726562 C 182.226562 121.214844 182.300781 118.628906 182.617188 119.019531 C 183.863281 120.507812 191.136719 127.074219 191.992188 127.464844 C 193.824219 128.296875 196.410156 127.832031 197.949219 126.390625 C 199.535156 124.902344 200.074219 121.996094 199.097656 120.019531 C 198.609375 118.992188 198.585938 118.96875 187.011719 108.007812 C 182.789062 104.003906 175.855469 97.414062 171.632812 93.382812 C 162.546875 84.71875 156.859375 79.34375 150.488281 73.460938 C 147.949219 71.09375 142.089844 65.578125 137.5 61.207031 C 132.910156 56.859375 128.757812 53.078125 128.246094 52.832031 C 126.976562 52.222656 124.023438 52.125 122.582031 52.660156 Z M 126 66.0625 C 126.441406 66.554688 129.125 69.09375 131.933594 71.726562 L 137.035156 76.539062 L 133.03125 76.683594 C 126.90625 76.929688 123.265625 77.78125 118.261719 80.199219 C 112.15625 83.15625 106.6875 88.453125 103.757812 94.238281 C 100.660156 100.390625 100.21875 108.277344 102.636719 114.796875 C 103.734375 117.699219 104.808594 119.410156 106.8125 121.484375 C 109.058594 123.753906 111.253906 124.828125 117.066406 126.488281 C 124.78125 128.664062 127.195312 129.589844 130.054688 131.421875 C 132.347656 132.886719 133.59375 134.03125 134.914062 135.890625 C 137.257812 139.160156 138.183594 142.066406 138.183594 146.140625 C 138.183594 151.710938 136.28125 155.882812 131.984375 159.8125 C 127.585938 163.84375 121.363281 166.0625 114.378906 166.089844 C 109.71875 166.089844 105.933594 165.332031 101.683594 163.523438 C 94.578125 160.523438 87.546875 152.222656 87.9375 147.3125 C 88.085938 145.484375 89.183594 143.433594 90.503906 142.480469 C 91.945312 141.480469 92.871094 141.164062 94.484375 141.136719 C 97.3125 141.089844 99.65625 142.96875 101.050781 146.363281 C 102.90625 150.878906 104.566406 152.417969 109.132812 153.832031 C 111.570312 154.613281 117.039062 154.664062 119.140625 153.953125 C 123.78125 152.390625 125.976562 149.902344 125.976562 146.265625 C 125.953125 143.210938 123.851562 140.894531 119.824219 139.550781 C 119.238281 139.355469 116.917969 138.671875 114.648438 138.0625 C 105.003906 135.398438 101.023438 133.324219 96.410156 128.515625 C 89.355469 121.167969 86.839844 109.523438 90.113281 99.632812 C 90.601562 98.167969 90.84375 97.898438 94.824219 94.019531 C 100.074219 88.914062 103.859375 85.277344 110.960938 78.492188 C 114.039062 75.539062 118.40625 71.335938 120.65625 69.140625 C 122.898438 66.96875 124.828125 65.1875 124.953125 65.1875 C 125.046875 65.1875 125.539062 65.578125 126 66.0625 Z M 171.875 127.246094 C 172.191406 127.855469 172.191406 128.003906 171.875 128.5625 C 171.410156 129.394531 170.65625 129.6875 169.898438 129.296875 C 169.042969 128.882812 168.773438 127.882812 169.289062 127.074219 C 169.875 126.171875 171.3125 126.269531 171.875 127.246094 Z M 80.152344 127.222656 C 81.445312 127.808594 81.445312 129.710938 80.152344 130.03125 C 78.222656 130.515625 77.101562 128.199219 78.808594 127.222656 C 79.34375 126.90625 79.445312 126.90625 80.152344 127.222656 Z M 174.121094 134.449219 C 174.65625 134.9375 174.707031 136.058594 174.171875 136.570312 C 173.242188 137.5 171.632812 136.816406 171.632812 135.472656 C 171.632812 134.179688 173.121094 133.546875 174.121094 134.449219 Z M 78.5625 135.253906 C 79.296875 135.960938 79.273438 137.085938 78.515625 137.597656 C 77.710938 138.109375 76.929688 137.964844 76.34375 137.183594 C 75.21875 135.667969 77.171875 133.960938 78.5625 135.253906 Z M 174.265625 148.121094 C 175.390625 149.097656 174.828125 150.878906 173.414062 150.878906 C 172.507812 150.878906 171.875 150.21875 171.875 149.265625 C 171.875 147.925781 173.265625 147.265625 174.265625 148.121094 Z M 173.09375 157.03125 C 173.707031 157.714844 173.730469 158.546875 173.09375 159.179688 C 172.414062 159.863281 171.53125 159.789062 170.921875 159.03125 C 170.289062 158.226562 170.265625 157.617188 170.898438 156.984375 C 171.53125 156.347656 172.460938 156.371094 173.09375 157.03125 Z M 173.09375 157.03125 "/>
<path  d="M 51.023438 184.765625 C 50.148438 185.035156 50.046875 185.546875 50.046875 190.355469 C 50.046875 194.75 50.074219 195.09375 50.539062 195.554688 C 51.148438 196.167969 51.539062 196.167969 52.269531 195.582031 C 52.78125 195.164062 52.855469 194.898438 52.855469 193.382812 L 52.855469 191.648438 L 56.882812 191.648438 L 56.882812 193.457031 C 56.882812 195.433594 57.128906 195.851562 58.25 195.851562 C 59.421875 195.851562 59.496094 195.507812 59.667969 190.671875 C 59.8125 185.472656 59.71875 184.984375 58.351562 184.863281 C 57.203125 184.742188 56.882812 185.253906 56.882812 187.304688 L 56.882812 188.964844 L 52.976562 188.964844 L 52.976562 187.304688 C 52.976562 186.011719 52.882812 185.546875 52.5625 185.253906 C 52 184.789062 51.488281 184.617188 51.023438 184.765625 Z M 51.023438 184.765625 "/>
<path  d="M 67.113281 184.914062 C 64.890625 185.695312 63.523438 187.5 63.304688 189.941406 C 63.0625 192.503906 64.574219 194.773438 67.113281 195.679688 C 69.289062 196.4375 71.582031 195.851562 73.289062 194.09375 C 75.5625 191.75 75.511719 188.574219 73.167969 186.230469 C 71.703125 184.765625 69.117188 184.203125 67.113281 184.914062 Z M 70.75 187.890625 C 72.753906 189.28125 72.21875 192.480469 69.824219 193.117188 C 67.40625 193.773438 65.355469 191.210938 66.527344 188.964844 C 67.066406 187.9375 67.820312 187.5 69.09375 187.5 C 69.703125 187.5 70.460938 187.671875 70.75 187.890625 Z M 70.75 187.890625 "/>
<path  d="M 79.222656 185.15625 C 78.710938 185.667969 78.613281 186.011719 78.613281 187.183594 C 78.613281 187.964844 78.492188 190.0625 78.34375 191.84375 C 78.027344 195.484375 78.125 195.851562 79.492188 195.851562 C 80.6875 195.851562 81.054688 195.070312 81.054688 192.601562 C 81.054688 191.382812 81.152344 190.429688 81.296875 190.429688 C 81.421875 190.429688 81.984375 191.089844 82.519531 191.894531 C 84.375 194.628906 85.109375 194.652344 86.988281 191.945312 L 88.257812 190.085938 L 88.429688 191.1875 C 88.5 191.773438 88.597656 192.820312 88.597656 193.480469 C 88.625 195.09375 89.109375 195.800781 90.210938 195.800781 C 91.480469 195.800781 91.625 195.3125 91.332031 192.066406 C 91.1875 190.550781 91.0625 188.523438 91.0625 187.546875 C 91.0625 185.984375 90.992188 185.695312 90.453125 185.179688 C 90.136719 184.839844 89.695312 184.570312 89.5 184.570312 C 88.550781 184.570312 88.378906 184.765625 85.546875 189.234375 L 84.839844 190.332031 L 83.300781 187.890625 C 81.519531 185.058594 81.398438 184.9375 80.492188 184.71875 C 79.980469 184.59375 79.6875 184.691406 79.222656 185.15625 Z M 79.222656 185.15625 "/>
<path  d="M 114.378906 184.914062 C 112.5 185.621094 111.402344 187.621094 112.0625 189.183594 C 112.523438 190.332031 113.355469 190.917969 115.28125 191.503906 C 116.699219 191.945312 117.089844 192.164062 117.140625 192.578125 C 117.261719 193.382812 116.210938 193.507812 114.476562 192.921875 C 112.84375 192.359375 112.621094 192.382812 111.988281 193.238281 C 111.449219 193.992188 111.742188 194.554688 113.132812 195.359375 C 114.453125 196.09375 116.871094 196.140625 118.285156 195.433594 C 120.070312 194.53125 120.800781 192.726562 119.996094 191.164062 C 119.507812 190.210938 118.601562 189.625 116.625 188.964844 C 115.1875 188.5 114.964844 188.355469 115.039062 187.890625 C 115.136719 187.207031 116.136719 187.109375 117.75 187.621094 L 118.992188 188.039062 L 119.554688 187.378906 C 120.191406 186.644531 120.214844 186.546875 119.800781 186.011719 C 118.921875 184.863281 116.089844 184.277344 114.378906 184.914062 Z M 114.378906 184.914062 "/>
<path  d="M 162.84375 184.765625 C 161.960938 185.035156 161.867188 185.546875 161.867188 190.476562 C 161.867188 195.289062 161.867188 195.3125 162.453125 195.679688 C 163.039062 196.070312 164.0625 195.898438 164.40625 195.359375 C 164.671875 194.921875 164.601562 185.523438 164.304688 185.179688 C 163.988281 184.789062 163.328125 184.617188 162.84375 184.765625 Z M 162.84375 184.765625 "/>
<path  d="M 171.53125 184.9375 C 170.164062 185.425781 169.410156 186.035156 168.578125 187.378906 C 167.96875 188.355469 167.871094 188.769531 167.847656 190.28125 C 167.847656 191.75 167.945312 192.1875 168.53125 193.1875 C 169.773438 195.3125 172.242188 196.363281 174.707031 195.824219 C 177.050781 195.289062 178.148438 193.796875 176.976562 192.75 C 176.539062 192.335938 176.414062 192.308594 175.707031 192.625 C 175.269531 192.796875 174.339844 192.992188 173.632812 193.042969 C 172.4375 193.164062 172.3125 193.117188 171.507812 192.308594 C 170.777344 191.578125 170.65625 191.285156 170.65625 190.308594 C 170.65625 189.332031 170.777344 189.039062 171.484375 188.328125 C 172.191406 187.621094 172.484375 187.5 173.4375 187.5 C 174.046875 187.5 174.925781 187.695312 175.414062 187.914062 C 176.246094 188.304688 176.269531 188.304688 176.878906 187.742188 C 177.636719 187.035156 177.660156 186.523438 176.929688 185.839844 C 175.707031 184.691406 173.339844 184.277344 171.53125 184.9375 Z M 171.53125 184.9375 "/>
<path  d="M 193.285156 184.914062 C 191.453125 185.59375 190.796875 186.695312 190.894531 188.914062 C 190.941406 189.917969 192.335938 191.039062 194.261719 191.601562 C 196.191406 192.1875 196.484375 192.457031 196.019531 193.042969 C 195.605469 193.507812 193.871094 193.359375 192.53125 192.699219 C 191.601562 192.261719 191.601562 192.261719 191.136719 192.847656 C 190.503906 193.601562 190.550781 194.238281 191.285156 194.921875 C 192.503906 196.070312 195.164062 196.386719 196.898438 195.582031 C 200.21875 194.09375 199.953125 190.429688 196.460938 189.332031 C 194.1875 188.625 193.847656 188.429688 193.847656 187.964844 C 193.847656 187.304688 194.875 187.132812 196.265625 187.597656 C 196.949219 187.816406 197.65625 187.988281 197.851562 187.988281 C 198.390625 187.988281 199.046875 186.890625 198.851562 186.304688 C 198.4375 185.007812 195.214844 184.179688 193.285156 184.914062 Z M 193.285156 184.914062 "/>
<path  d="M 95.851562 185.351562 C 95.53125 185.789062 95.460938 186.71875 95.460938 190.308594 C 95.460938 196.140625 95.214844 195.800781 99.460938 195.800781 C 102.296875 195.800781 102.757812 195.75 103.101562 195.359375 C 103.664062 194.726562 103.613281 193.945312 102.976562 193.507812 C 102.585938 193.238281 101.855469 193.117188 100.414062 193.117188 L 98.390625 193.117188 L 98.390625 192.40625 C 98.390625 191.820312 98.511719 191.699219 99.144531 191.554688 C 99.5625 191.480469 100.390625 191.40625 100.953125 191.40625 C 101.515625 191.40625 102.101562 191.257812 102.222656 191.089844 C 102.734375 190.429688 102.757812 189.917969 102.296875 189.453125 C 101.90625 189.0625 101.464844 188.964844 100.097656 188.964844 L 98.390625 188.964844 L 98.390625 187.5 L 100.414062 187.5 C 102.660156 187.5 103.515625 187.132812 103.515625 186.179688 C 103.515625 185.007812 102.90625 184.8125 99.414062 184.8125 C 96.386719 184.8125 96.191406 184.839844 95.851562 185.351562 Z M 95.851562 185.351562 "/>
<path  d="M 123.753906 185.203125 C 123.363281 185.667969 123.414062 194.996094 123.828125 195.484375 C 124.171875 195.921875 130.640625 195.921875 131.054688 195.507812 C 131.445312 195.117188 131.421875 193.675781 131.054688 193.433594 C 130.882812 193.335938 129.761719 193.1875 128.539062 193.117188 C 126.390625 192.992188 126.34375 192.96875 126.269531 192.359375 C 126.171875 191.578125 126.636719 191.40625 128.710938 191.40625 C 129.929688 191.40625 130.175781 191.332031 130.492188 190.820312 C 130.8125 190.355469 130.835938 190.113281 130.617188 189.722656 C 130.320312 189.136719 129.808594 188.988281 127.808594 188.914062 C 126.414062 188.84375 126.34375 188.792969 126.269531 188.207031 L 126.195312 187.546875 L 128.441406 187.453125 C 130.394531 187.351562 130.738281 187.28125 131.128906 186.792969 C 131.542969 186.28125 131.519531 185.765625 131.03125 185.109375 C 130.859375 184.914062 129.835938 184.8125 127.441406 184.8125 C 124.683594 184.8125 124.023438 184.886719 123.753906 185.203125 Z M 123.753906 185.203125 "/>
<path  d="M 135.058594 185.109375 C 134.839844 185.328125 134.765625 186.816406 134.765625 190.355469 L 134.765625 195.3125 L 135.351562 195.679688 C 136.109375 196.191406 137.15625 195.921875 137.328125 195.214844 C 137.402344 194.945312 137.476562 194.261719 137.5 193.726562 C 137.546875 192.96875 137.671875 192.726562 138.0625 192.675781 C 138.429688 192.625 138.867188 193.015625 139.746094 194.214844 C 140.867188 195.726562 140.941406 195.800781 141.945312 195.800781 C 143.480469 195.800781 143.675781 195.433594 142.921875 194.117188 C 142.554688 193.507812 142.140625 192.847656 141.96875 192.652344 C 141.699219 192.382812 141.820312 192.164062 142.601562 191.382812 C 143.675781 190.308594 143.992188 189.136719 143.578125 187.742188 C 143.210938 186.546875 142.53125 185.695312 141.503906 185.203125 C 140.476562 184.71875 135.523438 184.644531 135.058594 185.109375 Z M 140.453125 188.039062 C 140.671875 188.304688 140.867188 188.71875 140.867188 188.941406 C 140.867188 189.769531 140.429688 190.039062 138.941406 190.136719 L 137.453125 190.234375 L 137.453125 188.890625 C 137.453125 187.671875 137.5 187.523438 138.011719 187.425781 C 138.941406 187.28125 139.992188 187.523438 140.453125 188.039062 Z M 140.453125 188.039062 "/>
<path  d="M 146.972656 185.304688 C 146.828125 185.59375 146.777344 186.035156 146.851562 186.304688 C 147.191406 187.378906 151.125 195.265625 151.464844 195.53125 C 151.660156 195.703125 152.246094 195.800781 152.757812 195.75 L 153.6875 195.679688 L 155.6875 191.648438 C 158.03125 186.914062 158.398438 185.914062 158.03125 185.351562 C 157.714844 184.839844 156.347656 184.667969 155.835938 185.109375 C 155.46875 185.398438 153.929688 188.523438 153.148438 190.550781 C 152.929688 191.089844 152.6875 191.601562 152.613281 191.699219 C 152.539062 191.796875 151.878906 190.527344 151.171875 188.890625 C 149.414062 184.863281 149.367188 184.8125 148.195312 184.8125 C 147.484375 184.8125 147.167969 184.9375 146.972656 185.304688 Z M 146.972656 185.304688 "/>
<path  d="M 180.347656 185.253906 C 179.980469 185.644531 179.929688 186.375 179.929688 190.355469 C 179.929688 194.53125 179.980469 195.042969 180.371094 195.386719 C 180.738281 195.726562 181.398438 195.800781 184.007812 195.800781 C 186.765625 195.800781 187.230469 195.75 187.574219 195.359375 C 188.039062 194.847656 188.109375 194.164062 187.742188 193.601562 C 187.574219 193.335938 186.914062 193.210938 185.179688 193.164062 L 182.859375 193.066406 L 182.859375 192.359375 C 182.859375 191.96875 182.933594 191.625 183.054688 191.625 C 183.15625 191.601562 183.960938 191.578125 184.863281 191.527344 C 186.644531 191.480469 187.257812 191.164062 187.257812 190.308594 C 187.257812 189.378906 186.546875 188.988281 184.691406 188.914062 C 183.03125 188.84375 182.984375 188.820312 182.910156 188.160156 L 182.835938 187.5 L 184.667969 187.5 C 186.914062 187.5 187.671875 187.230469 187.890625 186.375 C 188.039062 185.863281 187.9375 185.621094 187.5 185.253906 C 187.035156 184.886719 186.5 184.8125 183.835938 184.8125 C 181.152344 184.8125 180.6875 184.863281 180.347656 185.253906 Z M 180.347656 185.253906 "/>
<style>
    svg { fill: #000; }

    @media (prefers-color-scheme: dark) {
        svg { fill: #FFF; }
    }
    </style>
</svg>
